<svg xmlns="http://www.w3.org/2000/svg" viewBox="0 0 64 64" fill="none">
  <defs>
    <linearGradient id="g" x1="0" y1="0" x2="64" y2="64" gradientUnits="userSpaceOnUse">
      <stop offset="0" stop-color="#3b82f6"/>
      <stop offset="1" stop-color="#22d3ee"/>
    </linearGradient>
  </defs>
  <rect width="64" height="64" rx="14" fill="url(#g)"/>
  <path d="M16 38c0-2 1-3 3-4l4-1 4-9c1-3 3-4 6-4h10c3 0 5 1 6 4l4 9 4 1c2 1 3 2 3 4v8a2 2 0 0 1-2 2h-4v-3H22v3h-4a2 2 0 0 1-2-2z" fill="#0b1020" opacity="0.92"/>
  <circle cx="24" cy="44" r="3" fill="#34d399"/>
  <circle cx="40" cy="44" r="3" fill="#34d399"/>
  <path d="M12 56h40" stroke="#fff" stroke-width="2" stroke-linecap="round"/>
  <path d="M12 58h40" stroke="#0038B8" stroke-width="2" stroke-linecap="round"/>
</svg>
